<svg width="448" height="512" viewBox="0 0 448 512" fill="none" xmlns="http://www.w3.org/2000/svg">
<path d="M331.5 235.7C333.7 236.6 335.7 237.6 337.8 238.5C367 252.6 388.4 273.7 399.6 299.9C415.3 336.4 416.8 395.7 369.3 443.1C333.1 479.3 289 495.6 226.7 496.1H226.4C156.2 495.6 102.3 472 66 425.9C33.7 384.9 17.1 327.8 16.5 256.3V256V255.8C17 184.3 33.6 127.2 65.9 86.2C102.2 40.1 156.2 16.5 226.4 16H226.7C297 16.5 351.6 40 389 85.9C407.4 108.6 421 135.9 429.6 167.6L389.2 178.4C382.1 152.6 371.4 130.6 357 113C327.8 77.2 284 58.8 226.5 58.4C169.5 58.9 126.4 77.2 98.3 112.8C72.1 146.1 58.5 194.3 58 256C58.5 317.7 72.1 365.9 98.3 399.3C126.3 434.9 169.5 453.2 226.5 453.7C277.9 453.3 311.9 441.1 340.2 412.8C372.5 380.6 371.9 341 361.6 316.9C355.5 302.7 344.5 290.9 329.7 282C326 308.9 317.9 330.3 305 346.8C287.9 368.6 263.6 380.4 232.3 382.1C208.7 383.4 186 377.7 168.4 366.1C147.6 352.3 135.4 331.3 134.1 306.8C131.6 258.5 169.8 223.8 229.3 220.4C250.4 219.2 270.2 220.1 288.5 223.2C286.1 208.4 281.2 196.6 273.9 188C263.9 176.3 248.3 170.3 227.7 170.2H227C210.4 170.2 188 174.8 173.7 196.5L139.3 172.9C158.5 143.8 189.6 127.8 227.1 127.8H227.9C290.5 128.2 327.8 167.3 331.6 235.5L331.4 235.7H331.5ZM175.5 304.5C176.8 329.6 203.9 341.3 230.1 339.8C255.7 338.4 284.7 328.4 289.6 266.6C276.4 263.7 261.8 262.2 246.2 262.2C241.4 262.2 236.6 262.3 231.8 262.6C188.9 265 174.6 285.8 175.6 304.4L175.5 304.5Z" fill="#FF9F0B"/>
</svg>
