<svg width="512" height="512" viewBox="0 0 512 512" fill="none" xmlns="http://www.w3.org/2000/svg">
<path d="M256 0C260.6 0 265.2 0.999607 269.4 2.89886L457.7 82.7675C479.7 92.0638 496.1 113.755 496 139.945C495.5 239.106 454.7 420.535 282.4 503.002C265.7 510.999 246.3 510.999 229.6 503.002C57.3004 420.535 16.5005 239.106 16.0005 139.945C15.9005 113.755 32.3004 92.0638 54.3004 82.7675L242.7 2.89886C246.8 0.999607 251.4 0 256 0Z" fill="#151515"/>
<path d="M204.889 194.143C204.889 171.765 223.225 153.571 245.778 153.571H266.222C288.775 153.571 307.111 171.765 307.111 194.143V196.425C307.111 210.245 300.019 223.113 288.328 230.53L261.367 247.71C245.267 257.979 235.556 275.666 235.556 294.621V295.571C235.556 306.792 244.692 315.857 256 315.857C267.308 315.857 276.444 306.792 276.444 295.571V294.684C276.444 289.486 279.128 284.668 283.472 281.879L310.433 264.699C333.817 249.738 348 224.064 348 196.425V194.143C348 149.324 311.392 113 266.222 113H245.778C200.608 113 164 149.324 164 194.143C164 205.363 173.136 214.429 184.444 214.429C195.753 214.429 204.889 205.363 204.889 194.143ZM256 397C262.778 397 269.278 394.328 274.071 389.573C278.863 384.818 281.556 378.368 281.556 371.643C281.556 364.918 278.863 358.468 274.071 353.713C269.278 348.957 262.778 346.286 256 346.286C249.222 346.286 242.722 348.957 237.929 353.713C233.137 358.468 230.444 364.918 230.444 371.643C230.444 378.368 233.137 384.818 237.929 389.573C242.722 394.328 249.222 397 256 397Z" fill="white"/>
</svg>
